<svg width="51" height="51" viewBox="0 0 51 51" fill="none" xmlns="http://www.w3.org/2000/svg">
<path d="M12.0061 27.1202L11.6525 27.4737L12.0061 27.8273L22.5418 38.363L22.8954 38.0095L23.2795 38.3296L39.1975 19.2318L39.5178 18.8476L39.1334 18.5275L34.8426 14.9541L34.4585 14.6342L34.1386 15.0182L22.4877 28.9998L16.6606 23.1727L16.307 22.8192L15.9535 23.1727L12.0061 27.1202ZM5.95833 0.875H45.0417C47.8447 0.875 50.125 3.15527 50.125 5.95833V45.0417C50.125 47.8447 47.8447 50.125 45.0417 50.125H5.95833C3.15527 50.125 0.875 47.8447 0.875 45.0417V5.95833C0.875 3.15527 3.15527 0.875 5.95833 0.875Z" fill="#494949" stroke="black"/>
</svg>
