<svg width="40" height="41" viewBox="0 0 40 41" fill="none" xmlns="http://www.w3.org/2000/svg">
<path d="M1.33337 0.125C0.979742 0.125 0.640593 0.265476 0.390536 0.515524C0.14048 0.765573 0 1.10471 0 1.45833C0 1.81196 0.14048 2.15109 0.390536 2.40114C0.640593 2.65119 0.979742 2.79167 1.33337 2.79167H4.29347L5.36283 7.077L9.35762 28.3703C9.41482 28.6759 9.57698 28.9518 9.81606 29.1505C10.0552 29.3492 10.3561 29.458 10.667 29.4583H13.3337C11.9192 29.4583 10.5626 30.0202 9.56239 31.0204C8.56217 32.0206 8.00025 33.3772 8.00025 34.7917C8.00025 36.2062 8.56217 37.5627 9.56239 38.5629C10.5626 39.5631 11.9192 40.125 13.3337 40.125C14.7483 40.125 16.1049 39.5631 17.1051 38.5629C18.1053 37.5627 18.6672 36.2062 18.6672 34.7917C18.6672 33.3772 18.1053 32.0206 17.1051 31.0204C16.1049 30.0202 14.7483 29.4583 13.3337 29.4583H32.001C30.5865 29.4583 29.2299 30.0202 28.2296 31.0204C27.2294 32.0206 26.6675 33.3772 26.6675 34.7917C26.6675 36.2062 27.2294 37.5627 28.2296 38.5629C29.2299 39.5631 30.5865 40.125 32.001 40.125C33.4155 40.125 34.7721 39.5631 35.7723 38.5629C36.7726 37.5627 37.3345 36.2062 37.3345 34.7917C37.3345 33.3772 36.7726 32.0206 35.7723 31.0204C34.7721 30.0202 33.4155 29.4583 32.001 29.4583H34.6677C34.9786 29.458 35.2796 29.3492 35.5187 29.1505C35.7578 28.9518 35.9199 28.6759 35.9771 28.3703L39.9772 7.037C40.0133 6.84457 40.0065 6.64656 39.9573 6.45705C39.9082 6.26754 39.8179 6.09117 39.6929 5.94048C39.568 5.78978 39.4113 5.66846 39.2341 5.58514C39.057 5.50181 38.8636 5.45851 38.6679 5.45833H7.7069L6.62687 1.13567C6.55489 0.84709 6.3885 0.590863 6.15414 0.407733C5.91978 0.224602 5.63092 0.125082 5.3335 0.125H1.33337ZM16.0005 34.7917C16.0005 35.4989 15.7195 36.1772 15.2194 36.6773C14.7193 37.1774 14.041 37.4583 13.3337 37.4583C12.6265 37.4583 11.9482 37.1774 11.4481 36.6773C10.948 36.1772 10.667 35.4989 10.667 34.7917C10.667 34.0844 10.948 33.4061 11.4481 32.9061C11.9482 32.406 12.6265 32.125 13.3337 32.125C14.041 32.125 14.7193 32.406 15.2194 32.9061C15.7195 33.4061 16.0005 34.0844 16.0005 34.7917ZM34.6677 34.7917C34.6677 35.4989 34.3868 36.1772 33.8867 36.6773C33.3866 37.1774 32.7083 37.4583 32.001 37.4583C31.2937 37.4583 30.6154 37.1774 30.1153 36.6773C29.6152 36.1772 29.3342 35.4989 29.3342 34.7917C29.3342 34.0844 29.6152 33.4061 30.1153 32.9061C30.6154 32.406 31.2937 32.125 32.001 32.125C32.7083 32.125 33.3866 32.406 33.8867 32.9061C34.3868 33.4061 34.6677 34.0844 34.6677 34.7917ZM24.0007 12.125V16.125H28.0009C28.3545 16.125 28.6936 16.2655 28.9437 16.5155C29.1938 16.7656 29.3342 17.1047 29.3342 17.4583C29.3342 17.812 29.1938 18.1511 28.9437 18.4011C28.6936 18.6512 28.3545 18.7917 28.0009 18.7917H24.0007V22.7917C24.0007 23.1453 23.8603 23.4844 23.6102 23.7345C23.3601 23.9845 23.021 24.125 22.6674 24.125C22.3137 24.125 21.9746 23.9845 21.7245 23.7345C21.4745 23.4844 21.334 23.1453 21.334 22.7917V18.7917H17.3339C16.9802 18.7917 16.6411 18.6512 16.391 18.4011C16.141 18.1511 16.0005 17.812 16.0005 17.4583C16.0005 17.1047 16.141 16.7656 16.391 16.5155C16.6411 16.2655 16.9802 16.125 17.3339 16.125H21.334V12.125C21.334 11.7714 21.4745 11.4322 21.7245 11.1822C21.9746 10.9321 22.3137 10.7917 22.6674 10.7917C23.021 10.7917 23.3601 10.9321 23.6102 11.1822C23.8603 11.4322 24.0007 11.7714 24.0007 12.125Z" fill="#EDA598"/>
</svg>
