<svg width="74" height="55" viewBox="0 0 74 55" fill="none" xmlns="http://www.w3.org/2000/svg">
<path d="M45.1875 14.2188C45.1875 13.68 45.4015 13.1634 45.7824 12.7824C46.1634 12.4015 46.68 12.1875 47.2188 12.1875H55.3438C55.8825 12.1875 56.3991 12.4015 56.7801 12.7824C57.161 13.1634 57.375 13.68 57.375 14.2188V18.2812C57.375 18.82 57.161 19.3366 56.7801 19.7176C56.3991 20.0985 55.8825 20.3125 55.3438 20.3125H47.2188C46.68 20.3125 46.1634 20.0985 45.7824 19.7176C45.4015 19.3366 45.1875 18.82 45.1875 18.2812V14.2188Z" fill="#EDA598"/>
<path d="M9.25 0C6.79675 0 4.44397 0.965771 2.70926 2.68485C0.974551 4.40394 0 6.73552 0 9.16667L0 45.8333C0 48.2645 0.974551 50.5961 2.70926 52.3151C4.44397 54.0342 6.79675 55 9.25 55H64.75C67.2033 55 69.556 54.0342 71.2907 52.3151C73.0254 50.5961 74 48.2645 74 45.8333V9.16667C74 6.73552 73.0254 4.40394 71.2907 2.68485C69.556 0.965771 67.2033 0 64.75 0H9.25ZM69.375 9.16667V32.0833H4.625V9.16667C4.625 7.95109 5.11228 6.7853 5.97963 5.92576C6.84699 5.06622 8.02337 4.58333 9.25 4.58333H64.75C65.9766 4.58333 67.153 5.06622 68.0204 5.92576C68.8877 6.7853 69.375 7.95109 69.375 9.16667ZM64.75 50.4167H9.25C8.02337 50.4167 6.84699 49.9338 5.97963 49.0742C5.11228 48.2147 4.625 47.0489 4.625 45.8333V41.25H69.375V45.8333C69.375 47.0489 68.8877 48.2147 68.0204 49.0742C67.153 49.9338 65.9766 50.4167 64.75 50.4167Z" fill="#EDA598"/>
</svg>
