<svg width="65" height="65" viewBox="0 0 65 65" fill="none" xmlns="http://www.w3.org/2000/svg">
<path d="M33.224 31.334L32.4993 32.049L31.7713 31.334C30.4185 29.9984 28.5941 29.2496 26.6931 29.2496C24.7922 29.2496 22.9678 29.9984 21.615 31.334C20.9436 31.9798 20.4095 32.7546 20.0447 33.6118C19.6799 34.469 19.4918 35.3911 19.4918 36.3227C19.4918 37.2543 19.6799 38.1764 20.0447 39.0336C20.4095 39.8908 20.9436 40.6656 21.615 41.3115L32.4993 52.0007L43.3835 41.3115C44.0549 40.6656 44.589 39.8908 44.9538 39.0336C45.3187 38.1764 45.5067 37.2543 45.5067 36.3227C45.5067 35.3911 45.3187 34.469 44.9538 33.6118C44.589 32.7546 44.0549 31.9798 43.3835 31.334C42.0302 29.9982 40.2052 29.2493 38.3038 29.2493C36.4023 29.2493 34.5773 29.9982 33.224 31.334Z" fill="#EDA598"/>
<path d="M64.0471 30.2029L34.7971 0.952904C34.4955 0.65083 34.1373 0.411182 33.7431 0.247672C33.3488 0.0841623 32.9261 0 32.4993 0C32.0725 0 31.6498 0.0841623 31.2556 0.247672C30.8613 0.411182 30.5031 0.65083 30.2016 0.952904L0.951557 30.2029C0.497177 30.6574 0.187756 31.2365 0.0624113 31.8668C-0.0629332 32.4971 0.00142659 33.1505 0.247354 33.7443C0.493282 34.3381 0.909735 34.8456 1.44407 35.2027C1.9784 35.5598 2.60662 35.7505 3.24931 35.7507H6.49931V58.5007C6.49931 62.0854 9.41456 65.0007 12.9993 65.0007H51.9993C55.5841 65.0007 58.4993 62.0854 58.4993 58.5007V35.7507H61.7493C62.392 35.7505 63.0202 35.5598 63.5545 35.2027C64.0889 34.8456 64.5053 34.3381 64.7513 33.7443C64.9972 33.1505 65.0615 32.4971 64.9362 31.8668C64.8109 31.2365 64.5014 30.6574 64.0471 30.2029ZM52.0026 58.5007H12.9993V27.3494L32.4993 7.8494L51.9993 27.3494V42.2507L52.0026 58.5007Z" fill="#EDA598"/>
</svg>
