<svg width="46" height="65" viewBox="0 0 46 65" fill="none" xmlns="http://www.w3.org/2000/svg">
<path d="M23 0C19.4717 0 16.7544 2.94515 16.7544 6.46669C16.7544 9.85855 16.7306 12.8262 16.7306 12.8262H10.4571C10.339 12.8262 10.2248 12.8393 10.1121 12.858H8.36724V18.9557H37.6328V12.858H35.8879C35.7752 12.8393 35.661 12.8262 35.5429 12.8262H29.2695C29.2695 12.8262 29.3409 10.1398 29.3409 6.48651C29.3409 3.0946 26.5284 0 23 0ZM0 6.18502V65H46V6.18502H31.4268V10.4459H41.7887V60.7312H4.21538V10.4459H14.5733V6.18502H0ZM23 6.26432C24.156 6.26432 25.0899 7.1949 25.0899 8.34714C25.0899 9.50148 24.156 10.4339 23 10.4339C21.8441 10.4339 20.9102 9.50143 20.9102 8.34714C20.9102 7.19496 21.8441 6.26432 23 6.26432ZM8.36724 23.0896V25.1764H10.4571V23.0896H8.36724ZM14.6407 23.1293V25.216H37.6328V23.1293H14.6407ZM8.36724 30.9607V33.0475H10.4571V30.9607H8.36724ZM14.6407 31.0003V33.0911H37.6328V31.0003H14.6407ZM8.36724 38.8318V40.9186H10.4571V38.8318H8.36724ZM14.6407 38.8754V40.9622H37.6328V38.8754H14.6407ZM8.36724 46.7068V48.7936H10.4571V46.7068H8.36724ZM14.6407 46.7505V48.8373H37.6328V46.7505H14.6407ZM8.36724 54.578V56.6647H10.4571V54.578H8.36724ZM14.6407 54.6216V56.7083H37.6328V54.6216H14.6407Z" fill="#EDA598"/>
</svg>
