<svg width="65" height="65" viewBox="0 0 65 65" fill="none" xmlns="http://www.w3.org/2000/svg">
<path d="M0 6.09375C0 5.55503 0.214006 5.03837 0.594939 4.65744C0.975873 4.27651 1.49253 4.0625 2.03125 4.0625H8.125C8.5781 4.06263 9.01814 4.21424 9.37516 4.49323C9.73218 4.77221 9.98566 5.16256 10.0953 5.60219L11.7406 12.1875H58.9063C59.2045 12.1878 59.499 12.2537 59.7689 12.3807C60.0388 12.5076 60.2775 12.6924 60.4679 12.922C60.6583 13.1516 60.7958 13.4203 60.8706 13.709C60.9455 13.9977 60.9558 14.2993 60.9009 14.5925L54.8072 47.0925C54.7201 47.558 54.473 47.9784 54.1088 48.281C53.7446 48.5837 53.2861 48.7496 52.8125 48.75H16.25C15.7764 48.7496 15.3179 48.5837 14.9537 48.281C14.5895 47.9784 14.3424 47.558 14.2553 47.0925L8.16563 14.6534L6.54063 8.125H2.03125C1.49253 8.125 0.975873 7.91099 0.594939 7.53006C0.214006 7.14913 0 6.63247 0 6.09375ZM20.3125 48.75C18.1576 48.75 16.091 49.606 14.5673 51.1298C13.0435 52.6535 12.1875 54.7201 12.1875 56.875C12.1875 59.0299 13.0435 61.0965 14.5673 62.6202C16.091 64.144 18.1576 65 20.3125 65C22.4674 65 24.534 64.144 26.0577 62.6202C27.5815 61.0965 28.4375 59.0299 28.4375 56.875C28.4375 54.7201 27.5815 52.6535 26.0577 51.1298C24.534 49.606 22.4674 48.75 20.3125 48.75ZM48.75 48.75C46.5951 48.75 44.5285 49.606 43.0048 51.1298C41.481 52.6535 40.625 54.7201 40.625 56.875C40.625 59.0299 41.481 61.0965 43.0048 62.6202C44.5285 64.144 46.5951 65 48.75 65C50.9049 65 52.9715 64.144 54.4952 62.6202C56.019 61.0965 56.875 59.0299 56.875 56.875C56.875 54.7201 56.019 52.6535 54.4952 51.1298C52.9715 49.606 50.9049 48.75 48.75 48.75ZM20.3125 52.8125C21.3899 52.8125 22.4233 53.2405 23.1851 54.0024C23.947 54.7642 24.375 55.7976 24.375 56.875C24.375 57.9524 23.947 58.9858 23.1851 59.7476C22.4233 60.5095 21.3899 60.9375 20.3125 60.9375C19.2351 60.9375 18.2017 60.5095 17.4399 59.7476C16.678 58.9858 16.25 57.9524 16.25 56.875C16.25 55.7976 16.678 54.7642 17.4399 54.0024C18.2017 53.2405 19.2351 52.8125 20.3125 52.8125ZM48.75 52.8125C49.8274 52.8125 50.8608 53.2405 51.6226 54.0024C52.3845 54.7642 52.8125 55.7976 52.8125 56.875C52.8125 57.9524 52.3845 58.9858 51.6226 59.7476C50.8608 60.5095 49.8274 60.9375 48.75 60.9375C47.6726 60.9375 46.6393 60.5095 45.8774 59.7476C45.1155 58.9858 44.6875 57.9524 44.6875 56.875C44.6875 55.7976 45.1155 54.7642 45.8774 54.0024C46.6393 53.2405 47.6726 52.8125 48.75 52.8125Z" fill="black"/>
</svg>
